HIERARCHY
ROOT Hips
{
	OFFSET 0.00000 0.00000 0.00000
	CHANNELS 6 Xposition Yposition Zposition Zrotation Yrotation Xrotation 
	JOINT LHipJoint
	{
		OFFSET 0 0 0
		CHANNELS 3 Zrotation Yrotation Xrotation
		JOINT LeftHip
		{
			OFFSET 1.82298 -1.58346 0.87084
			CHANNELS 3 Zrotation Yrotation Xrotation
			JOINT LeftKnee
			{
				OFFSET 2.43790 -6.69809 0.00000
				CHANNELS 3 Zrotation Yrotation Xrotation
				JOINT LeftAnkle
				{
					OFFSET 2.59288 -7.12389 0.00000
					CHANNELS 3 Zrotation Yrotation Xrotation
					JOINT LeftToe
					{
						OFFSET 0.14552 -0.39981 2.13160
						CHANNELS 3 Zrotation Yrotation Xrotation
						End Site
						{
							OFFSET 0.00000 -0.00000 1.09427
						}
					}
				}
			}
		}
	}
	JOINT RHipJoint
	{
		OFFSET 0 0 0
		CHANNELS 3 Zrotation Yrotation Xrotation
		JOINT RightHip
		{
			OFFSET -1.77229 -1.58346 0.87084
			CHANNELS 3 Zrotation Yrotation Xrotation
			JOINT RightKnee
			{
				OFFSET -2.50703 -6.88801 0.00000
				CHANNELS 3 Zrotation Yrotation Xrotation
				JOINT RightAnkle
				{
					OFFSET -2.61620 -7.18796 0.00000
					CHANNELS 3 Zrotation Yrotation Xrotation
					JOINT RightToe
					{
						OFFSET -0.15190 -0.41735 2.15974
						CHANNELS 3 Zrotation Yrotation Xrotation
						End Site
						{
							OFFSET -0.00000 -0.00000 1.10919
						}
					}
				}
			}
		}
	}
	JOINT lowerback
	{
		OFFSET 0 0 0
		CHANNELS 3 Zrotation Yrotation Xrotation
		JOINT Chest
		{
			OFFSET -0.03602 2.12423 -0.30249
			CHANNELS 3 Zrotation Yrotation Xrotation
			JOINT Chest2
			{
				OFFSET 0.02717 2.10043 0.12912
				CHANNELS 3 Zrotation Yrotation Xrotation
				JOINT lowerneck
				{
					OFFSET 0 0 0
					CHANNELS 3 Zrotation Yrotation Xrotation
					JOINT Neck
					{
						OFFSET -0.06371 1.88656 0.11602
						CHANNELS 3 Zrotation Yrotation Xrotation
						JOINT Head
						{
							OFFSET 0.08208 1.87759 -0.11505
							CHANNELS 3 Zrotation Yrotation Xrotation
							End Site
							{
								OFFSET 0.03382 1.93090 -0.05483
							}
						}
					}
				}
				JOINT LeftCollar
				{
					OFFSET 0 0 0
					CHANNELS 3 Zrotation Yrotation Xrotation
					JOINT LeftShoulder
					{
						OFFSET 3.30903 1.40357 0.20156
CHANNELS 3 Zrotation Xrotation Yrotation
						JOINT LeftElbow
						{
OFFSET 0 -5.433010 0.000000
CHANNELS 3 Zrotation Xrotation Yrotation
							JOINT LeftWrist
							{
OFFSET 0 -3.159360 0.000000
CHANNELS 3 Zrotation Xrotation Yrotation
								JOINT lhand
								{
									OFFSET 0 0 0
CHANNELS 3 Zrotation Xrotation Yrotation
									JOINT LFingers
									{
OFFSET 0 -0.712830 0.000000
CHANNELS 3 Zrotation Xrotation Yrotation
										End Site
										{
OFFSET 0 -0.574700 0.000000
										}
									}
								}
								JOINT LThumb
								{
OFFSET 0 0.000000 0.000000
CHANNELS 3 Zrotation Xrotation Yrotation
									End Site
									{
OFFSET 0 -0.583470 0.583470
									}
								}
							}
						}
					}
				}
				JOINT RightCollar
				{
					OFFSET 0 0 0
					CHANNELS 3 Zrotation Yrotation Xrotation
					JOINT RightShoulder
					{
						OFFSET -3.12947 1.60037 -0.00464
CHANNELS 3 Zrotation Xrotation Yrotation
						JOINT RightElbow
						{
OFFSET 0 -5.341940 0.000000
CHANNELS 3 Zrotation Xrotation Yrotation
							JOINT RightWrist
							{
OFFSET 0 -3.193510 0.000000
CHANNELS 3 Zrotation Xrotation Yrotation
								JOINT rhand
								{
									OFFSET 0 0 0
CHANNELS 3 Zrotation Xrotation Yrotation
									JOINT RFingers
									{
OFFSET 0 -0.743860 0.000000
CHANNELS 3 Zrotation Xrotation Yrotation
										End Site
										{
OFFSET 0 -0.599720 0.000000
										}
									}
								}
								JOINT RThumb
								{
OFFSET 0 0.000000 0.000000
CHANNELS 3 Zrotation Xrotation Yrotation
									End Site
									{
OFFSET 0 -0.608880 0.608880
									}
								}
							}
						}
					}
				}
			}
		}
	}
}
MOTION
Frames: 10
Frame Time: 0.008333333333333333
-2.956400 16.829100 -36.275700 -2.771400 -0.409300 3.792000 0.000000 0.000000 0.000000 -6.622900 -9.769000 -15.877800 3.920900 12.054500 35.924900 0.995500 0.410400 -19.012600 1.908100 -8.672000 -24.774600 0.000000 0.000000 0.000000 13.711600 6.585200 -18.025000 -4.500200 -12.797800 38.616400 -1.599700 5.016600 -22.815600 -1.235700 7.049200 -19.861200 -1.972500 2.557200 7.025900 1.272300 3.315800 -3.142000 1.996600 1.756500 -7.435500 -6.841100 -4.040900 -4.681900 6.475900 -5.307400 4.698900 3.147600 -2.584400 2.769500 -0.000000 0.000000 0.000000 2.743100 -3.020900 -34.444200 13.551300 -22.089600 2.657000 32.448500 46.182200 -25.967600 0.000000 0.000000 0.000000 -7.125000 0.000000 0.000000 3.103500 59.944000 -1.132500 -0.000000 0.000000 0.000000 -9.510700 3.179100 29.967700 -17.974900 -28.125000 -4.537400 -26.341600 14.686400 22.762500 0.000000 0.000000 0.000000 7.125000 0.000000 -0.000000 2.876500 55.046200 -0.710100
-2.957887 16.823548 -36.289893 -2.690033 -0.889781 3.937857 0.000000 0.000000 0.000000 -6.990535 -8.306477 -16.546150 3.949073 12.092383 36.059501 0.963494 1.237658 -19.031612 1.708632 -8.230567 -23.416825 0.000000 0.000000 0.000000 13.508427 6.003364 -18.744690 -4.555316 -12.864868 38.864634 -1.545717 6.481818 -22.289071 -0.914038 6.090135 -17.046631 -1.851078 2.571106 7.045413 1.233112 3.343381 -3.117335 1.883393 1.762448 -7.411766 -6.844529 -3.934669 -4.558837 6.493247 -5.172656 4.693937 3.162348 -2.519043 2.735260 0.000000 0.000000 0.000000 2.591060 -3.218743 -34.010103 13.666793 -22.256419 2.700604 32.443319 45.861952 -26.091590 0.000000 0.000000 0.000000 -7.125000 0.000000 0.000000 3.064324 60.079516 -1.127967 0.000000 0.000000 0.000000 -9.486194 2.756321 29.647008 -17.555376 -27.584073 -4.341397 -25.929931 14.563645 22.967128 0.000000 0.000000 0.000000 7.125000 0.000000 0.000000 3.377930 55.179639 -0.844981
-2.967689 16.816973 -36.308474 -2.616341 -1.163466 3.731025 0.000000 0.000000 0.000000 -7.385736 -6.714051 -16.880667 3.953093 12.097724 36.078621 0.948851 1.970308 -19.211628 1.517633 -7.779363 -22.045873 0.000000 0.000000 0.000000 13.459109 5.548065 -18.965962 -4.603448 -12.922806 39.080228 -1.400932 7.691744 -21.168076 -0.536574 4.693468 -13.036216 -1.882580 2.556930 7.428550 1.254358 3.316517 -3.019547 1.913106 1.750311 -7.530729 -6.811229 -3.861338 -4.490380 6.490287 -5.080480 4.696882 3.160184 -2.473719 2.714876 0.000000 0.000000 0.000000 2.439831 -3.447965 -34.139399 13.664468 -22.253082 2.699769 32.475232 45.622805 -26.200591 0.000000 0.000000 0.000000 -7.125000 0.000000 0.000000 3.073927 60.208103 -1.141018 0.000000 0.000000 0.000000 -9.527870 2.545156 29.187045 -17.248263 -27.183840 -4.200086 -25.414039 14.643830 23.412185 0.000000 0.000000 0.000000 7.125000 0.000000 0.000000 4.072446 55.545737 -1.055691
-2.984160 16.805140 -36.326479 -2.679736 -1.161149 3.433903 0.000000 0.000000 0.000000 -7.334413 -5.694573 -17.051241 3.982856 12.137541 36.220223 1.004523 1.459206 -19.514970 1.382611 -7.440104 -21.026142 0.000000 0.000000 0.000000 13.600857 5.301179 -18.917130 -4.662219 -12.992937 39.342107 -1.324772 8.418375 -20.601037 -0.304974 3.549616 -9.812908 -1.813958 2.485981 7.851319 1.288653 3.224512 -2.922999 1.908870 1.701849 -7.664899 -6.894909 -3.804784 -4.246982 6.681358 -5.019912 4.572392 3.248118 -2.444090 2.633623 0.000000 0.000000 0.000000 2.421291 -3.642805 -34.471941 13.626036 -22.197583 2.685192 32.289518 45.499188 -25.897838 0.000000 0.000000 0.000000 -7.125000 0.000000 0.000000 2.930313 59.826533 -1.060785 0.000000 0.000000 0.000000 -9.470367 2.445368 28.741586 -16.962295 -26.807987 -4.070311 -24.817866 14.711511 24.536880 0.000000 0.000000 0.000000 7.125000 0.000000 0.000000 5.111620 56.607131 -1.456801
-2.990515 16.786045 -36.348932 -2.719376 -1.135753 2.991175 0.000000 0.000000 0.000000 -7.310244 -4.818067 -17.175160 4.053844 12.231730 36.556648 1.039293 0.813825 -19.576732 1.277548 -7.163161 -20.199652 0.000000 0.000000 0.000000 13.647339 4.419632 -19.020439 -4.749822 -13.096331 39.730253 -1.318740 9.152692 -20.599592 -0.248227 3.205653 -8.851823 -1.750421 2.378108 8.471632 1.360843 3.083022 -2.756767 1.950040 1.629787 -7.838783 -6.831729 -3.776858 -4.308133 6.524752 -4.971825 4.531911 3.182581 -2.422128 2.618950 0.000000 0.000000 0.000000 2.267425 -3.775772 -34.552523 13.721884 -22.335718 2.721510 32.381546 45.351536 -25.960400 0.000000 0.000000 0.000000 -7.125000 0.000000 0.000000 3.024785 59.919077 -1.101945 0.000000 0.000000 0.000000 -9.567061 2.264782 28.576412 -16.774420 -26.559496 -3.986006 -25.211975 14.709311 24.559368 0.000000 0.000000 0.000000 7.125000 0.000000 0.000000 4.693978 56.716292 -1.350176
-2.993379 16.759785 -36.376709 -2.550251 -1.307828 2.200288 0.000000 0.000000 0.000000 -7.533836 -4.017142 -16.806684 4.121699 12.320626 36.875803 1.066072 0.177911 -19.588359 1.133451 -6.761212 -19.009995 0.000000 0.000000 0.000000 13.499490 3.957916 -18.780733 -4.889537 -13.258385 40.343466 -1.330648 9.572146 -20.725163 -0.190592 2.811485 -7.754352 -1.913901 2.413891 9.649756 1.363875 3.093973 -2.600765 2.001943 1.642636 -8.363716 -6.794699 -3.761877 -4.198153 6.448402 -4.951777 4.423203 3.150781 -2.415137 2.555725 0.000000 0.000000 0.000000 2.113513 -3.754888 -34.652979 13.804594 -22.454590 2.753033 32.331973 45.002375 -25.877238 0.000000 0.000000 0.000000 -7.125000 0.000000 0.000000 2.986975 59.814577 -1.080696 0.000000 0.000000 0.000000 -9.654117 2.418982 28.448520 -16.717106 -26.483360 -3.960360 -24.692926 14.654121 25.040769 0.000000 0.000000 0.000000 7.125000 0.000000 0.000000 5.444990 57.108057 -1.621359
-2.991600 16.731555 -36.399043 -2.481455 -1.293245 1.528347 0.000000 0.000000 0.000000 -7.608674 -3.343319 -16.498776 4.195403 12.416037 37.219997 1.115196 -1.046209 -19.644210 0.816578 -5.765700 -16.106264 0.000000 0.000000 0.000000 13.437715 3.501617 -18.611620 -5.032400 -13.420194 40.962402 -1.359834 9.662430 -20.953312 -0.173165 2.680649 -7.390879 -1.934085 2.385882 10.744258 1.387163 3.038962 -2.510367 2.009634 1.617896 -8.900699 -6.783513 -3.714632 -4.122675 6.436297 -4.890459 4.361113 3.147787 -2.385879 2.515275 0.000000 0.000000 0.000000 2.002206 -3.599612 -34.772288 13.845422 -22.513333 2.768642 32.458049 44.870036 -25.812236 0.000000 0.000000 0.000000 -7.125000 0.000000 0.000000 3.155380 59.774755 -1.138692 0.000000 0.000000 0.000000 -9.690798 2.514196 28.205663 -16.582823 -26.304509 -3.900670 -24.999924 14.530639 24.572956 0.000000 0.000000 0.000000 7.125000 0.000000 0.000000 4.928689 56.684579 -1.413990
-2.988358 16.702648 -36.411442 -2.479651 -1.039831 1.121265 0.000000 0.000000 0.000000 -7.577133 -2.928595 -16.681722 4.318908 12.573101 37.790763 1.109009 -2.380541 -19.254146 0.582701 -4.887422 -13.587686 0.000000 0.000000 0.000000 13.401747 2.857659 -18.725673 -5.180715 -13.584386 41.597594 -1.387197 9.905281 -21.179811 -0.143442 2.440967 -6.726028 -1.847688 2.291258 11.437048 1.394180 2.914806 -2.451784 1.969308 1.553339 -9.228365 -6.725935 -3.710589 -4.019568 6.416807 -4.889676 4.260135 3.130920 -2.386532 2.459170 0.000000 0.000000 0.000000 1.929622 -3.607122 -34.729116 13.675211 -22.268432 2.703783 32.502801 45.162755 -25.904866 0.000000 0.000000 0.000000 -7.125000 0.000000 0.000000 3.185286 59.888532 -1.158176 0.000000 0.000000 0.000000 -9.618693 2.591082 27.811682 -16.415143 -26.080268 -3.826618 -24.564190 13.720542 24.264097 0.000000 0.000000 0.000000 7.125000 0.000000 0.000000 5.283243 56.265849 -1.462559
-2.989330 16.676212 -36.420638 -2.141378 -1.029423 0.810009 0.000000 0.000000 0.000000 -7.898532 -2.232018 -16.900236 4.414112 12.691907 38.225885 1.092290 -3.643162 -18.875786 0.395875 -4.039907 -11.188952 0.000000 0.000000 0.000000 12.990788 2.467501 -18.971871 -5.359357 -13.777344 42.352850 -1.410066 10.225926 -21.380453 -0.070965 1.717944 -4.726814 -2.178661 2.341964 12.028590 1.273457 2.911634 -2.433288 2.007493 1.566931 -9.563762 -6.770964 -3.744395 -3.817895 6.577262 -4.948866 4.156426 3.194808 -2.416114 2.399458 0.000000 0.000000 0.000000 1.936668 -3.692771 -34.448901 13.385601 -21.849592 2.595040 32.503794 45.685084 -25.784456 0.000000 0.000000 0.000000 -7.125000 0.000000 0.000000 3.217420 59.755641 -1.159635 0.000000 0.000000 0.000000 -9.463722 2.696817 27.529892 -16.212475 -25.807940 -3.737970 -24.550511 13.886742 24.456864 0.000000 0.000000 0.000000 7.125000 0.000000 0.000000 5.370393 56.465234 -1.512767
-2.983033 16.651866 -36.420515 -1.866762 -0.991975 0.754503 0.000000 0.000000 0.000000 -8.173713 -1.857331 -17.223384 4.500204 12.797838 38.616561 1.084300 -4.484745 -18.698615 0.287720 -3.449498 -9.532829 0.000000 0.000000 0.000000 12.595857 2.052583 -19.407574 -5.517050 -13.943432 43.011136 -1.441916 10.628108 -21.656128 -0.068925 1.694156 -4.661098 -2.337742 2.378899 12.288324 1.129980 2.917545 -2.429210 1.933089 1.574281 -9.711539 -6.766423 -3.841701 -3.956172 6.612554 -5.077808 4.260235 3.199358 -2.477060 2.470940 0.000000 0.000000 0.000000 2.014175 -3.883999 -34.062479 13.166817 -21.531102 2.514226 32.525842 46.054582 -25.825372 0.000000 0.000000 0.000000 -7.125000 0.000000 0.000000 3.233574 59.806527 -1.169339 0.000000 0.000000 0.000000 -9.304523 2.722334 27.432491 -16.070943 -25.616821 -3.676576 -24.199359 13.696945 24.344568 0.000000 0.000000 0.000000 7.125000 0.000000 0.000000 5.704964 56.272381 -1.580673
